<?xml version="1.0" encoding="UTF-8"?><svg id="_レイヤー_1" xmlns="http://www.w3.org/2000/svg" viewBox="0 0 500.34 209.2"><defs><style>.cls-1{fill:#ffffff;stroke-width:0px;}</style></defs><path class="cls-1" d="M1.55,89.69h112.3v25.53c-.26,7.69-4.82,11.46-14.07,11.33H1.55v-36.87ZM5.2,193v-61.49h104.75v46.64c.13,10.42-3,14.59-11.07,14.98,4.56,5.6,6.9,8.08,13.68,14.59h-29.83c-2.61-3.52-3-3.91-5.21-7.3-1.69-2.74-3.26-5.08-4.82-7.43h-30.49c-3.65,6.51-5.6,9.51-9.77,14.72H1.94c6.9-6.25,9.38-8.86,13.81-14.72H5.2ZM34.25,112.88v-7.43h-10.29v7.43h10.29ZM87.8,148.19v-4.04H27.61v4.04h60.19ZM87.8,164.08v-4.69H27.61v4.69h60.19ZM87.8,179.58v-4.3H27.61v4.3h60.19ZM63.69,105.46h-11.46v7.43h11.46v-7.43ZM91.96,112.88v-7.43h-9.77v7.43h9.77Z"/><path class="cls-1" d="M155.66,96.86v60.32q.13,15.63,1.17,16.94c.91,1.04,2.08,1.56,3.78,1.56,2.74,0,8.99-2.87,22.15-10.29v26.58c-19.93,9.12-24.75,10.81-30.62,10.81-6.25,0-11.72-2.47-14.98-6.9-3.52-4.69-4.56-9.25-4.56-20.58v-78.43h23.06ZM215.33,197.95v-46.38c-.13-13.68-1.17-18.76-4.43-21.63-1.96-1.56-4.04-2.21-7.56-2.34h-12.38v-23.45c24.88.26,29.83,1.43,37.52,7.95,9.12,8.73,10.68,14.33,10.55,39.6v46.25h-23.71Z"/><path class="cls-1" d="M257.41,134.77c14.59-2.87,20.58-14.46,20.84-40.39h87.68v51.98c-.26,18.89-2.87,29.05-9.9,38.43-9.12,12.12-21.11,17.33-40.39,17.72h-53.41v-21.37h44.82c26.19.13,34.79-8.21,35.44-34.13v-30.35h-44.29c-3.26,24.75-16.02,37.52-40.78,40.65v-22.54Z"/><path class="cls-1" d="M419.34,92.3v56.67c.52,33.09-13.55,53.29-39.6,56.67v-24.75c12.64-3.78,16.68-10.81,17.46-29.83v-58.76h22.15ZM433.67,92.3h22.54v85.85c18.11-.91,20.45-4.17,20.71-29.57v-30.49h21.89v33.61c0,21.89-2.61,31.66-10.55,39.21-8.34,7.69-17.85,10.55-34.92,10.68h-19.67v-109.3Z"/><path class="cls-1" d="M.48,35.22h10.82v14.87h11.91v-18.67H2.61V5.79h11.08v16.03h9.53V2.57h11.2v19.25h9.14V5.79h10.82v15.71c.06,7.66-2,9.72-9.85,9.92h-10.11v18.67h11.27v-14.87h10.62v13.39c0,9.08-1.8,11.01-10.43,11.01H.48v-24.4Z"/><path class="cls-1" d="M74.66,17.77v-5.22h-11.78V3.35h21.25v23.18h-11.27l-.39,5.02h11.78c-.06,4.64-.06,4.7-.19,9.79-.06,9.66-.84,12.43-4.51,15.97-3.35,2.77-6.25,3.61-12.68,3.61h-3.28v-9.53h4.38c3.03,0,4.31-.39,5.15-1.42.84-1.09,1.42-4.18,1.42-7.98l-.06-1.8h-12.68l1.54-22.41h11.33ZM89.28,51.71v-14.04h-4.06v-7.28h4.06V3.8h30.39v7.66h-20.99v1.93h19v6.25h-19v2h19v6.31h-19v2.45h22.09v7.28h-14.75c1.22,2.64,1.48,3.03,2.7,4.7,1.09-1.22,1.29-1.48,2.12-2.9h9.53c-2.06,3.73-3.09,5.15-5.73,8.31,2.71,1.61,3.09,1.8,6.18,2.9v10.24c-6.25-1.67-9.59-3.41-13.39-6.95v4.51c-6.38,1.03-15.2,2-22.09,2.32v-8.89l3.93-.19ZM104.15,50.48c-2.51-3.41-3.54-5.15-5.41-9.34v9.59l5.41-.26Z"/><path class="cls-1" d="M126.94,3.28h55.51v12.62c-.13,3.8-2.38,5.67-6.96,5.6h-48.55V3.28ZM128.75,54.35v-30.39h51.77v23.05c.06,5.15-1.48,7.21-5.47,7.41,2.25,2.77,3.41,3.99,6.76,7.21h-14.75c-1.29-1.74-1.48-1.93-2.58-3.61-.84-1.35-1.61-2.51-2.38-3.67h-15.07c-1.8,3.22-2.77,4.7-4.83,7.28h-15.07c3.41-3.09,4.64-4.38,6.83-7.28h-5.22ZM143.11,14.74v-3.67h-5.09v3.67h5.09ZM169.57,32.2v-2h-29.75v2h29.75ZM169.57,40.05v-2.32h-29.75v2.32h29.75ZM169.57,47.71v-2.12h-29.75v2.12h29.75ZM157.66,11.07h-5.67v3.67h5.67v-3.67ZM171.63,14.74v-3.67h-4.83v3.67h4.83Z"/><path class="cls-1" d="M191.78,46.55V13.26h-3.61V3.99h31.94v5.09h26.4c-1.35,16.42-3.09,24.28-7.6,34.13,2.45,2.7,4.19,4.06,8.24,6.44v12.3c-5.15-2.25-10.11-5.86-13.91-10.24-4.31,5.02-8.05,7.53-14.62,9.66v-11.2c4.57-2.32,6.31-3.67,8.95-6.76-3.35-7.41-4.7-12.43-6.7-24.4h-2v-6.44h-1.87v48.23h-9.66v-6.5c-6.76,1.03-10.3,1.48-19.45,2.45v-9.79l3.86-.39ZM207.37,17.51v-4.25h-5.92v4.25h5.92ZM207.37,30.97v-5.15h-5.92v5.15h5.92ZM207.37,44.62v-5.34h-5.92v6.12l5.92-.77ZM230.16,18.99c.71,5.21,1.16,7.47,2.45,12.17,1.55-4.51,2.06-6.57,2.83-12.17h-5.28Z"/><path class="cls-1" d="M261.2,15.58V4.63h11.01v10.95h15.97V4.63h11.46v10.95h11.14v10.43h-11.14v7.53c.32,16.87-9.08,26.4-25.56,25.95h-13.65v-10.37h14.55c9.34.13,13.33-4.57,13.2-15.52v-7.6h-15.97v13.71h-11.01v-13.71h-10.69v-10.43h10.69Z"/><path class="cls-1" d="M370.27,26.66v10.95h-52.74v-10.95h52.74Z"/><path class="cls-1" d="M393,6.5v15.97l34.77-7.34v11.27l-34.77,6.5v10.3c-.19,4.25,1.22,5.54,5.86,5.54h31.1v10.11h-33.94c-9.85.06-14.68-4.77-14.29-14.29V6.5h11.27ZM425.26,2.12v9.92h-6.18V2.12h6.18ZM433.24,2.12v9.92h-6.05V2.12h6.05Z"/><path class="cls-1" d="M444.12,16.48V5.86h46.56c-3.48,11.2-6.38,18.54-10.43,26.27,7.15,9.98,11.85,17.84,16.61,27.62h-13.97c-2.83-6.76-4.83-10.56-8.63-16.68-6.12,11.08-14.62,16.61-26.46,17.39h-8.11v-10.88h4.06c9.79.06,14.81-2.38,19.58-9.53,3.16-4.44,8.11-14.75,11.33-23.57h-30.52Z"/></svg>