<?xml version="1.0" encoding="UTF-8"?><svg id="_レイヤー_1" xmlns="http://www.w3.org/2000/svg" xmlns:xlink="http://www.w3.org/1999/xlink" viewBox="0 0 300 300"><defs><clipPath id="clippath"><rect x="0" y="0" width="300" height="300" rx="150" ry="150" style="fill:none; stroke-width:0px;"/></clipPath></defs><rect x="0" y="0" width="300" height="300" rx="150" ry="150" style="fill:#ea3323; stroke-width:0px;"/><g style="clip-path:url(#clippath);"><path d="M33.07,27.1h233.87v53.17c-.54,16.01-10.04,23.88-29.3,23.61H33.07V27.1ZM40.66,242.24V114.19h218.13v97.13c.27,21.71-6.24,30.39-23.06,31.2,9.5,11.67,14.38,16.82,28.49,30.39h-62.13c-5.43-7.33-6.24-8.14-10.85-15.19-3.53-5.7-6.78-10.58-10.04-15.46h-63.49c-7.6,13.56-11.67,19.8-20.35,30.66h-63.49c14.38-13.02,19.53-18.45,28.76-30.66h-21.98ZM101.16,75.39v-15.46h-21.43v15.46h21.43ZM212.67,148.91v-8.41h-125.34v8.41h125.34ZM212.67,182.01v-9.77h-125.34v9.77h125.34ZM212.67,214.3v-8.95h-125.34v8.95h125.34ZM162.48,59.93h-23.88v15.46h23.88v-15.46ZM221.35,75.39v-15.46h-20.35v15.46h20.35Z" style="fill:#fff; stroke-width:0px;"/></g></svg>